<svg width="10" height="20" viewBox="0 0 10 20" fill="none" xmlns="http://www.w3.org/2000/svg">
<path d="M8.15542 19.9999C7.9467 20.0006 7.74048 19.9535 7.5519 19.8621C7.36333 19.7706 7.19719 19.6371 7.0657 19.4714L0.317818 10.9008C0.112334 10.6452 0 10.3246 0 9.9937C0 9.66284 0.112334 9.34224 0.317818 9.08665L7.3032 0.516026C7.54034 0.224316 7.8811 0.0408693 8.25053 0.00604443C8.61995 -0.0287805 8.98777 0.0878684 9.27308 0.330329C9.55839 0.57279 9.7378 0.921202 9.77186 1.29892C9.80593 1.67663 9.69184 2.05271 9.4547 2.34442L3.20977 10.0008L9.24514 17.6573C9.41598 17.8669 9.5245 18.1223 9.55786 18.393C9.59122 18.6638 9.54803 18.9386 9.43339 19.1851C9.31875 19.4315 9.13747 19.6392 8.91098 19.7836C8.6845 19.928 8.42231 20.0031 8.15542 19.9999Z" fill="white"/>
</svg>
