<svg width="6" height="4" viewBox="0 0 6 4" fill="none" xmlns="http://www.w3.org/2000/svg">
<path d="M5.19517 2.00088C5.19506 2.39652 5.06664 2.78324 4.82614 3.11215C4.58564 3.44106 4.24386 3.69737 3.84403 3.84869C3.4442 4 3.00427 4.03951 2.57988 3.96223C2.15548 3.88495 1.76569 3.69434 1.45978 3.41451C1.15387 3.13468 0.945586 2.7782 0.861271 2.39015C0.776956 2.00209 0.820393 1.59989 0.986091 1.23441C1.15179 0.868923 1.43231 0.55657 1.79217 0.336848C2.15203 0.117125 2.57507 -9.881e-05 3.0078 6.24939e-08C4.21632 6.24939e-08 5.19517 0.895947 5.19517 2.00088Z" fill="white"/>
</svg>
