<svg width="24" height="24" viewBox="0 0 24 24" fill="none" xmlns="http://www.w3.org/2000/svg">
<g clip-path="url(#clip0)">
<path d="M12.0388 1.23242C5.94668 1.23242 1.01074 6.16836 1.01074 12.2605C1.01074 18.3526 5.94668 23.2885 12.0388 23.2885C18.1309 23.2885 23.0668 18.3526 23.0668 12.2605C23.0668 6.16836 18.1309 1.23242 12.0388 1.23242ZM16.1516 15.1509L15.2623 16.2626C15.2039 16.3355 15.1317 16.3963 15.0499 16.4414C14.968 16.4865 14.8781 16.515 14.7852 16.5253C14.6924 16.5356 14.5984 16.5275 14.5086 16.5015C14.4189 16.4755 14.3351 16.4321 14.2622 16.3737L11.2828 14.1628C11.0747 13.9961 10.9066 13.7848 10.7912 13.5444C10.6757 13.304 10.6158 13.0407 10.6158 12.7741V5.85708C10.6158 5.66839 10.6908 5.48742 10.8242 5.35399C10.9576 5.22056 11.1386 5.1456 11.3273 5.1456H12.7503C12.939 5.1456 13.1199 5.22056 13.2534 5.35399C13.3868 5.48742 13.4618 5.66839 13.4618 5.85708V12.2605L16.0409 14.1503C16.1139 14.2087 16.1747 14.281 16.2197 14.3629C16.2648 14.4448 16.2933 14.5347 16.3036 14.6277C16.3139 14.7206 16.3058 14.8146 16.2797 14.9044C16.2536 14.9942 16.2101 15.0779 16.1516 15.1509Z" fill="white"/>
</g>
<defs>
<clipPath id="clip0">
<rect width="22.7676" height="22.7676" fill="white" transform="translate(0.654297 0.875732)"/>
</clipPath>
</defs>
</svg>
