<svg width="16" height="16" viewBox="0 0 16 16" fill="none" xmlns="http://www.w3.org/2000/svg">
<path d="M14.7072 2.56249C14.9629 2.29911 15.0627 1.98873 15.0407 1.68874C15.0191 1.39424 14.8814 1.12271 14.6853 0.920633C14.4893 0.718718 14.2234 0.574476 13.932 0.551768C13.6341 0.52855 13.3291 0.634344 13.0731 0.898023L8.02325 6.09925L4.43343 2.40185L4.43343 2.40185L2.97337 0.898023C2.71743 0.634416 2.41248 0.528672 2.1146 0.551872C1.82327 0.574562 1.55732 0.718729 1.36127 0.92059C1.16508 1.12261 1.02736 1.39411 1.00573 1.68862C0.983683 1.98863 1.08354 2.29904 1.33932 2.56249L6.39821 7.77298L2.79939 11.4797L1.33932 12.9835C1.08361 13.2469 0.983801 13.5572 1.00583 13.8572C1.02745 14.1517 1.16509 14.4233 1.36123 14.6253C1.55722 14.8272 1.82313 14.9715 2.11449 14.9942C2.41239 15.0174 2.71736 14.9116 2.97337 14.6479L8.02325 9.44672L11.6131 13.1441L13.0731 14.6479C13.3291 14.9116 13.634 15.0173 13.9319 14.9941C14.2232 14.9714 14.4892 14.8272 14.6852 14.6254C14.8814 14.4234 15.0191 14.1519 15.0408 13.8573C15.0628 13.5573 14.963 13.2469 14.7072 12.9835L9.64829 7.77298L13.2471 4.0663L14.7072 2.56249Z" fill="white" stroke="white" stroke-width="0.437838"/>
</svg>
