<svg width="20" height="20" viewBox="0 0 20 20" fill="none" xmlns="http://www.w3.org/2000/svg">
<path d="M15.8333 3.33464H13.3333V1.66797H11.6667V3.33464H8.33333V1.66797H6.66667V3.33464H4.16667C3.2475 3.33464 2.5 4.08214 2.5 5.0013V16.668C2.5 17.5871 3.2475 18.3346 4.16667 18.3346H15.8333C16.7525 18.3346 17.5 17.5871 17.5 16.668V5.0013C17.5 4.08214 16.7525 3.33464 15.8333 3.33464ZM4.16667 16.668V5.83464H15.8333V5.0013L15.835 16.668H4.16667Z" fill="white"/>
<path d="M13.0234 10.1534L11.5234 8.65422L12.6651 7.51172L14.1651 9.01089L13.0234 10.1534Z" fill="white"/>
<path d="M6.6709 13.501V15.0002H8.17006L12.3167 10.8585L10.8176 9.35938L6.6709 13.501Z" fill="white"/>
</svg>
