<svg width="12" height="15" viewBox="0 0 12 15" fill="none" xmlns="http://www.w3.org/2000/svg">
<path d="M11.4157 5.85668L11.0122 4.51254V4.50825L10.1348 1.58403H10.1329L10.0348 1.25395C9.92718 0.892009 9.70554 0.574506 9.40288 0.348709C9.10022 0.122912 8.73274 0.000895762 8.35513 0.000824058H3.66763C3.28998 0.000707309 2.9224 0.122652 2.61971 0.348477C2.31701 0.574302 2.09541 0.891911 1.98794 1.25395L1.8899 1.58403H1.88755L1.01021 4.50825V4.51254L0.60513 5.85668C0.483255 6.26254 0.694974 6.70278 1.09615 6.83872C1.19553 6.87255 1.30071 6.886 1.40541 6.87828C1.51011 6.87055 1.61218 6.8418 1.70552 6.79374C1.79887 6.74569 1.88156 6.67931 1.94868 6.59858C2.01579 6.51785 2.06595 6.42442 2.09615 6.32387L3.09536 2.99379L3.18013 2.71137C3.20488 2.64235 3.25312 2.58423 3.3164 2.54718C3.37968 2.51013 3.45397 2.49652 3.52627 2.50872C3.59858 2.52091 3.66429 2.55815 3.71191 2.61391C3.75953 2.66966 3.78603 2.74039 3.78677 2.81371C3.78675 2.83485 3.78452 2.85593 3.78013 2.87661L2.07193 8.57153C2.04392 8.66484 2.03811 8.76341 2.05497 8.85937C2.07183 8.95532 2.11089 9.04601 2.16903 9.12419C2.22716 9.20236 2.30278 9.26587 2.38982 9.30963C2.47687 9.35339 2.57294 9.37619 2.67036 9.37622H3.80318V13.8563C3.80318 14.4993 4.21451 15.0012 4.74068 15.0012C5.26685 15.0012 5.67818 14.4993 5.67818 13.8563V9.37622H6.30318V13.8563C6.30318 14.4993 6.7145 15.0012 7.24068 15.0012C7.76685 15.0012 8.17818 14.4993 8.17818 13.8563V9.37622H9.35005C9.44751 9.37625 9.54363 9.35349 9.63072 9.30976C9.71782 9.26602 9.79348 9.20253 9.85167 9.12434C9.90985 9.04616 9.94894 8.95545 9.96582 8.85946C9.9827 8.76348 9.9769 8.66487 9.94888 8.57153L8.24029 2.87582C8.236 2.8554 8.23391 2.83458 8.23404 2.81371C8.23443 2.74017 8.26076 2.66912 8.30838 2.61307C8.356 2.55702 8.42187 2.51956 8.49439 2.50729C8.5669 2.49502 8.64142 2.50871 8.70484 2.54597C8.76825 2.58323 8.81649 2.64166 8.84107 2.71098L8.92583 2.9934L9.92466 6.32348C9.95499 6.42388 10.0052 6.51714 10.0724 6.59771C10.1395 6.67828 10.2222 6.74451 10.3155 6.79244C10.4087 6.84038 10.5107 6.86904 10.6153 6.87672C10.7199 6.8844 10.825 6.87095 10.9243 6.83715C11.3254 6.70278 11.5372 6.26254 11.4157 5.85668Z" fill="white"/>
</svg>
