<svg width="13" height="15" viewBox="0 0 13 15" fill="none" xmlns="http://www.w3.org/2000/svg">
<path fill-rule="evenodd" clip-rule="evenodd" d="M3.32738 2.22904L1.85638 6.2038C1.77097 6.41864 1.59698 6.59439 1.37165 6.69345C1.14632 6.7925 0.887534 6.807 0.650664 6.73383C0.413793 6.66066 0.217649 6.50564 0.104196 6.30193C-0.00925712 6.09823 -0.0310079 5.86202 0.0435964 5.64384L1.78584 0.935116C1.88659 0.662729 2.07821 0.426078 2.33375 0.258456C2.58928 0.0908338 2.89586 0.000677688 3.21036 0.000671387H8.71214C9.34812 0.000671387 9.91519 0.366649 10.1285 0.914117L11.9664 5.63234C12.0102 5.74091 12.03 5.85635 12.0246 5.97196C12.0193 6.08758 11.9889 6.20108 11.9352 6.30588C11.8816 6.41069 11.8057 6.50472 11.712 6.58254C11.6184 6.66036 11.5087 6.72042 11.3895 6.75924C11.2703 6.79806 11.1438 6.81486 11.0174 6.80869C10.891 6.80251 10.7672 6.77347 10.6532 6.72326C10.5392 6.67304 10.4372 6.60264 10.3531 6.51614C10.2691 6.42963 10.2046 6.32874 10.1635 6.2193L8.68699 2.42953V14.1758C8.68699 14.6288 8.27412 14.9993 7.76829 14.9993C7.26356 14.9993 6.85014 14.6288 6.85014 14.1753V8.30268H5.16423V14.1758C5.16423 14.6288 4.75081 14.9993 4.24553 14.9993C3.7408 14.9993 3.32684 14.6288 3.32684 14.1753V2.22904H3.32738Z" fill="white"/>
</svg>
