<svg width="9" height="14" viewBox="0 0 9 14" fill="none" xmlns="http://www.w3.org/2000/svg">
<path d="M1.75 2.625C1.75 1.92881 2.02656 1.26113 2.51884 0.768845C3.01113 0.276562 3.67881 0 4.375 0C5.07119 0 5.73887 0.276562 6.23116 0.768845C6.72344 1.26113 7 1.92881 7 2.625V7C7 7.69619 6.72344 8.36387 6.23116 8.85616C5.73887 9.34844 5.07119 9.625 4.375 9.625C3.67881 9.625 3.01113 9.34844 2.51884 8.85616C2.02656 8.36387 1.75 7.69619 1.75 7V2.625Z" fill="white"/>
<path d="M0.4375 5.6875C0.553532 5.6875 0.664812 5.73359 0.746859 5.81564C0.828906 5.89769 0.875 6.00897 0.875 6.125V7C0.875 7.92826 1.24375 8.8185 1.90013 9.47487C2.5565 10.1313 3.44674 10.5 4.375 10.5C5.30326 10.5 6.1935 10.1313 6.84987 9.47487C7.50625 8.8185 7.875 7.92826 7.875 7V6.125C7.875 6.00897 7.92109 5.89769 8.00314 5.81564C8.08519 5.73359 8.19647 5.6875 8.3125 5.6875C8.42853 5.6875 8.53981 5.73359 8.62186 5.81564C8.70391 5.89769 8.75 6.00897 8.75 6.125V7C8.75001 8.08459 8.34716 9.13052 7.61961 9.93487C6.89205 10.7392 5.89165 11.2447 4.8125 11.3531V13.125H7.4375C7.55353 13.125 7.66481 13.1711 7.74686 13.2531C7.82891 13.3352 7.875 13.4465 7.875 13.5625C7.875 13.6785 7.82891 13.7898 7.74686 13.8719C7.66481 13.9539 7.55353 14 7.4375 14H1.3125C1.19647 14 1.08519 13.9539 1.00314 13.8719C0.921094 13.7898 0.875 13.6785 0.875 13.5625C0.875 13.4465 0.921094 13.3352 1.00314 13.2531C1.08519 13.1711 1.19647 13.125 1.3125 13.125H3.9375V11.3531C2.85835 11.2447 1.85795 10.7392 1.13039 9.93487C0.402836 9.13052 -1.36252e-05 8.08459 3.4563e-10 7V6.125C3.4563e-10 6.00897 0.0460937 5.89769 0.128141 5.81564C0.210188 5.73359 0.321468 5.6875 0.4375 5.6875Z" fill="white"/>
</svg>
