<svg width="25" height="25" viewBox="0 0 25 25" fill="none" xmlns="http://www.w3.org/2000/svg">
<path fill-rule="evenodd" clip-rule="evenodd" d="M18.1406 14.9813C17.8302 14.8261 16.3083 14.0781 16.025 13.974C15.7416 13.8709 15.5354 13.8198 15.3281 14.1302C15.1219 14.4386 14.5291 15.1365 14.3489 15.3427C14.1677 15.55 13.9875 15.575 13.6781 15.4209C13.3687 15.2646 12.3708 14.9386 11.1885 13.8844C10.2687 13.0636 9.64686 12.05 9.46665 11.7396C9.28644 11.4302 9.44686 11.2625 9.60207 11.1084C9.74165 10.9698 9.91144 10.7469 10.0666 10.5667C10.2219 10.3854 10.2729 10.2563 10.376 10.049C10.4802 9.84274 10.4281 9.66253 10.35 9.50732C10.2729 9.35211 9.65415 7.82816 9.39582 7.20836C9.14478 6.60524 8.88957 6.68753 8.69999 6.67711C8.51874 6.66878 8.31249 6.6667 8.10624 6.6667C7.89999 6.6667 7.56457 6.74378 7.28124 7.0542C6.99686 7.36357 6.19791 8.11253 6.19791 9.63649C6.19791 11.1594 7.30624 12.6313 7.46145 12.8386C7.61665 13.0448 9.64373 16.1719 12.7489 17.5125C13.4885 17.8313 14.0646 18.0219 14.5135 18.1636C15.2552 18.4 15.9302 18.3667 16.4635 18.2865C17.0573 18.1979 18.2948 17.5375 18.5531 16.8146C18.8104 16.0917 18.8104 15.4719 18.7333 15.3427C18.6562 15.2136 18.45 15.1365 18.1396 14.9813H18.1406ZM12.4927 22.6927H12.4885C10.6442 22.6931 8.83371 22.1973 7.24686 21.2573L6.87186 21.0344L2.97395 22.0573L4.01458 18.2573L3.76979 17.8677C2.73868 16.2264 2.19301 14.3269 2.19583 12.3886C2.19791 6.71149 6.81666 2.09275 12.4969 2.09275C15.2469 2.09275 17.8323 3.16566 19.776 5.11149C20.7347 6.06626 21.4946 7.20166 22.0117 8.45201C22.5288 9.70235 22.7928 11.0428 22.7885 12.3959C22.7864 18.0729 18.1677 22.6927 12.4927 22.6927ZM21.2552 3.63337C20.1075 2.47808 18.7419 1.56206 17.2376 0.938375C15.7333 0.314692 14.1201 -0.00424608 12.4916 4.26849e-05C5.66457 4.26849e-05 0.10625 5.55733 0.104167 12.3875C0.103125 14.5709 0.672916 16.7021 1.75729 18.5802L0 25L6.56666 23.2771C8.38319 24.2668 10.4188 24.7854 12.4875 24.7854H12.4927C19.3198 24.7854 24.8781 19.2281 24.8802 12.3969C24.8852 10.7691 24.5674 9.15638 23.9452 7.65215C23.323 6.14791 22.4087 4.78198 21.2552 3.63337Z" fill="white"/>
</svg>
