<svg width="17" height="13" viewBox="0 0 17 13" fill="none" xmlns="http://www.w3.org/2000/svg">
<path d="M10.6835 4.33333H0.82181C0.603853 4.33333 0.394822 4.42464 0.240703 4.58717C0.0865833 4.74971 0 4.97015 0 5.2V12.1333C0 12.3632 0.0865833 12.5836 0.240703 12.7462C0.394822 12.9087 0.603853 13 0.82181 13H10.6835C10.9015 13 11.1105 12.9087 11.2646 12.7462C11.4188 12.5836 11.5053 12.3632 11.5053 12.1333V5.2C11.5053 4.97015 11.4188 4.74971 11.2646 4.58717C11.1105 4.42464 10.9015 4.33333 10.6835 4.33333V4.33333ZM9.77954 5.2L5.75267 8.138L1.7258 5.2H9.77954ZM0.82181 12.1333V5.59433L5.51846 9.022C5.58724 9.07232 5.66896 9.09929 5.75267 9.09929C5.83639 9.09929 5.91811 9.07232 5.98689 9.022L10.6835 5.59433V12.1333H0.82181Z" fill="black"/>
<line x1="14.0558" y1="0.39" x2="14.0558" y2="4.19824" stroke="black" stroke-width="0.78" stroke-linecap="round"/>
<line x1="11.9456" y1="2.08764" x2="15.7538" y2="2.08764" stroke="black" stroke-width="0.78" stroke-linecap="round"/>
</svg>
